<svg xmlns="http://www.w3.org/2000/svg" viewBox="0 0 1280 720" width="1280" height="720" role="img" aria-label="Demo patio camera feed">
  <defs>
    <linearGradient id="scene" x1="0" x2="1" y1="0" y2="1">
      <stop offset="0" stop-color="#d6e5df"/>
      <stop offset=".45" stop-color="#b8c7b9"/>
      <stop offset="1" stop-color="#4f5d52"/>
    </linearGradient>
    <linearGradient id="deck" x1="0" x2="1">
      <stop offset="0" stop-color="#8b7b67"/>
      <stop offset="1" stop-color="#51483e"/>
    </linearGradient>
    <filter id="grain">
      <feTurbulence type="fractalNoise" baseFrequency=".74" numOctaves="2" stitchTiles="stitch"/>
      <feColorMatrix type="saturate" values=".55"/>
      <feComponentTransfer><feFuncA type="table" tableValues="0 .075"/></feComponentTransfer>
    </filter>
    <filter id="soft" x="-20%" y="-20%" width="140%" height="140%"><feGaussianBlur stdDeviation="20"/></filter>
  </defs>
  <rect width="1280" height="720" fill="url(#scene)"/>
  <ellipse cx="965" cy="112" rx="260" ry="86" fill="#fff" opacity=".35" filter="url(#soft)"/>
  <path d="M0 418h1280v302H0z" fill="url(#deck)"/>
  <g opacity=".9">
    <path d="M0 262h1280v72H0z" fill="#6d473e"/>
    <path d="M0 334h1280v28H0z" fill="#47332e"/>
    <path d="M82 122h160v296H82zM1038 92h122v326h-122z" fill="#5a3d36"/>
    <path d="M260 158c86-76 194-72 286 2 96-76 214-64 300 18v240H260z" fill="#446a4b" opacity=".82"/>
    <path d="M300 452h250v92H300z" fill="#e7e2d6" opacity=".83"/>
    <path d="M338 420h178l46 52H294z" fill="#c9bfaa"/>
    <path d="M735 444h210v82H735z" fill="#e5e0d7" opacity=".8"/>
    <path d="M774 414h134l50 48H724z" fill="#c5bba8"/>
  </g>
  <g opacity=".28" stroke="#e6dccb" stroke-width="3">
    <path d="M0 512h1280M0 604h1280M136 418 76 720M384 418 344 720M650 418 648 720M920 418l42 302M1160 418l86 302"/>
  </g>
  <rect width="1280" height="720" fill="#000" opacity=".05"/>
  <rect width="1280" height="720" filter="url(#grain)"/>
  <circle cx="31" cy="30" r="5" fill="#fff" opacity=".78"/>
</svg>
